<?xml version="1.0" standalone="no"?><!DOCTYPE svg PUBLIC "-//W3C//DTD SVG 1.1//EN" "http://www.w3.org/Graphics/SVG/1.1/DTD/svg11.dtd"><svg t="1595404680136" class="icon" viewBox="0 0 1024 1024" version="1.1" xmlns="http://www.w3.org/2000/svg" p-id="3964" xmlns:xlink="http://www.w3.org/1999/xlink" width="200" height="200"><defs><style type="text/css"></style></defs><path d="M510.293333 989.866667C247.466667 989.866667 34.133333 774.826667 34.133333 512S247.466667 34.133333 510.293333 34.133333s477.866667 211.626667 479.573334 472.746667C991.573333 774.826667 778.24 989.866667 510.293333 989.866667zM870.4 498.346667c0-56.32 3.413333-114.346667-1.706667-170.666667-5.12-63.146667-56.32-90.453333-107.52-58.026667-68.266667 42.666667-148.48 52.906667-215.04 97.28-11.946667 8.533333-27.306667 6.826667-40.96-1.706666-64.853333-40.96-143.36-52.906667-209.92-88.746667-71.68-37.546667-105.813333-20.48-107.52 61.44-3.413333 97.28 1.706667 192.853333-1.706666 290.133333-1.706667 46.08 18.773333 78.506667 52.906666 100.693334 78.506667 51.2 165.546667 85.333333 257.706667 104.106666 32.426667 6.826667 68.266667 6.826667 100.693333-6.826666 61.44-22.186667 122.88-46.08 180.906667-73.386667 56.32-25.6 98.986667-64.853333 90.453333-136.533333-1.706667-37.546667 1.706667-76.8 1.706667-117.76z" fill="#8CDE5A" p-id="3965"></path><path d="M870.4 498.346667c0 39.253333-3.413333 80.213333 0 119.466666 8.533333 73.386667-34.133333 110.933333-90.453333 136.533334-59.733333 27.306667-121.173333 49.493333-180.906667 73.386666-32.426667 11.946667-68.266667 13.653333-100.693333 6.826667-92.16-18.773333-179.2-52.906667-257.706667-104.106667-34.133333-22.186667-54.613333-54.613333-52.906667-100.693333 3.413333-97.28-1.706667-192.853333 1.706667-290.133333 1.706667-81.92 35.84-100.693333 107.52-61.44 66.56 35.84 145.066667 49.493333 209.92 88.746666 13.653333 8.533333 27.306667 10.24 40.96 1.706667 66.56-44.373333 146.773333-54.613333 215.04-97.28 51.2-32.426667 102.4-3.413333 107.52 58.026667 3.413333 56.32 0 112.64 0 168.96zM238.933333 494.933333v128c0 39.253333 17.066667 64.853333 51.2 80.213334 54.613333 25.6 110.933333 42.666667 167.253334 59.733333 32.426667 10.24 40.96-3.413333 40.96-32.426667v-136.533333c0-221.866667 17.066667-168.96-174.08-249.173333-81.92-34.133333-83.626667-30.72-83.626667 54.613333-1.706667 34.133333-1.706667 64.853333-1.706667 95.573333z m568.32 5.12v-136.533333c0-20.48-1.706667-42.666667-32.426666-30.72-61.44 22.186667-122.88 44.373333-182.613334 69.973333-23.893333 10.24-37.546667 34.133333-37.546666 63.146667v262.826667c0 34.133333 13.653333 40.96 47.786666 34.133333 179.2-37.546667 204.8-66.56 204.8-245.76v-17.066667z" fill="#FFFFFE" p-id="3966"></path><path d="M238.933333 494.933333v-93.866666c0-85.333333 1.706667-88.746667 83.626667-54.613334C517.12 428.373333 498.346667 375.466667 498.346667 597.333333v136.533334c0 29.013333-10.24 40.96-40.96 32.426666-56.32-17.066667-112.64-35.84-167.253334-59.733333-34.133333-15.36-51.2-42.666667-49.493333-80.213333 0-46.08-1.706667-88.746667-1.706667-131.413334zM807.253333 500.053333v17.066667c0 179.2-23.893333 206.506667-204.8 245.76-34.133333 6.826667-47.786667-1.706667-47.786666-34.133333V465.92c0-27.306667 13.653333-52.906667 37.546666-63.146667 59.733333-25.6 121.173333-46.08 182.613334-69.973333 30.72-11.946667 32.426667 10.24 32.426666 30.72v136.533333z" fill="#8CDE5A" p-id="3967"></path></svg>